<svg width="240" height="240" viewBox="0 0 240 240" fill="none" xmlns="http://www.w3.org/2000/svg">
<circle cx="120" cy="120" r="120" fill="black"/>
<path d="M53.4786 65H189.479V167H53.4786V65Z" stroke="white" stroke-width="6"/>
<path d="M68.6331 99.25C66.0664 99.25 63.7497 98.75 61.6831 97.75C59.6164 96.75 57.8331 95.4 56.3331 93.7C54.8331 91.9667 53.6664 90.0333 52.8331 87.9C52.0331 85.7333 51.6331 83.5167 51.6331 81.25C51.6331 78.8833 52.0664 76.6333 52.9331 74.5C53.7998 72.3333 54.9998 70.4167 56.5331 68.75C58.0664 67.05 59.8664 65.7167 61.9331 64.75C64.0331 63.75 66.2997 63.25 68.7331 63.25C71.2664 63.25 73.5664 63.7667 75.6331 64.8C77.7331 65.8333 79.5164 67.2167 80.9831 68.95C82.4831 70.6833 83.6331 72.6167 84.4331 74.75C85.2664 76.8833 85.6831 79.0667 85.6831 81.3C85.6831 83.6667 85.2497 85.9333 84.3831 88.1C83.5497 90.2333 82.3664 92.15 80.8331 93.85C79.2997 95.5167 77.4831 96.8333 75.3831 97.8C73.3164 98.7667 71.0664 99.25 68.6331 99.25ZM57.3331 81.25C57.3331 82.9167 57.5997 84.5333 58.1331 86.1C58.6664 87.6667 59.4164 89.0667 60.3831 90.3C61.3831 91.5 62.5831 92.45 63.9831 93.15C65.3831 93.85 66.9497 94.2 68.6831 94.2C70.4831 94.2 72.0831 93.8333 73.4831 93.1C74.8831 92.3667 76.0497 91.3833 76.9831 90.15C77.9497 88.8833 78.6831 87.4833 79.1831 85.95C79.6831 84.3833 79.9331 82.8167 79.9331 81.25C79.9331 79.5833 79.6664 77.9833 79.1331 76.45C78.6331 74.8833 77.8831 73.5 76.8831 72.3C75.8831 71.0667 74.6831 70.1 73.2831 69.4C71.9164 68.7 70.3831 68.35 68.6831 68.35C66.8831 68.35 65.2831 68.7167 63.8831 69.45C62.4831 70.1833 61.2997 71.1667 60.3331 72.4C59.3664 73.6333 58.6164 75.0167 58.0831 76.55C57.5831 78.0833 57.3331 79.65 57.3331 81.25ZM136.631 63.5V99H130.981V83.35H113.081V99H107.481V63.5H113.081V78.35H130.981V63.5H136.631ZM175.389 99.25C172.823 99.25 170.506 98.75 168.439 97.75C166.373 96.75 164.589 95.4 163.089 93.7C161.589 91.9667 160.423 90.0333 159.589 87.9C158.789 85.7333 158.389 83.5167 158.389 81.25C158.389 78.8833 158.823 76.6333 159.689 74.5C160.556 72.3333 161.756 70.4167 163.289 68.75C164.823 67.05 166.623 65.7167 168.689 64.75C170.789 63.75 173.056 63.25 175.489 63.25C178.023 63.25 180.323 63.7667 182.389 64.8C184.489 65.8333 186.273 67.2167 187.739 68.95C189.239 70.6833 190.389 72.6167 191.189 74.75C192.023 76.8833 192.439 79.0667 192.439 81.3C192.439 83.6667 192.006 85.9333 191.139 88.1C190.306 90.2333 189.123 92.15 187.589 93.85C186.056 95.5167 184.239 96.8333 182.139 97.8C180.073 98.7667 177.823 99.25 175.389 99.25ZM164.089 81.25C164.089 82.9167 164.356 84.5333 164.889 86.1C165.423 87.6667 166.173 89.0667 167.139 90.3C168.139 91.5 169.339 92.45 170.739 93.15C172.139 93.85 173.706 94.2 175.439 94.2C177.239 94.2 178.839 93.8333 180.239 93.1C181.639 92.3667 182.806 91.3833 183.739 90.15C184.706 88.8833 185.439 87.4833 185.939 85.95C186.439 84.3833 186.689 82.8167 186.689 81.25C186.689 79.5833 186.423 77.9833 185.889 76.45C185.389 74.8833 184.639 73.5 183.639 72.3C182.639 71.0667 181.439 70.1 180.039 69.4C178.673 68.7 177.139 68.35 175.439 68.35C173.639 68.35 172.039 68.7167 170.639 69.45C169.239 70.1833 168.056 71.1667 167.089 72.4C166.123 73.6333 165.373 75.0167 164.839 76.55C164.339 78.0833 164.089 79.65 164.089 81.25ZM80.1936 103.45H68.3936V134H62.7436V103.45H50.8937V98.5H80.1936V103.45ZM114.804 129.05V134H90.4542V98.5H114.354V103.45H96.0542V113.55H111.904V118.2H96.0542V129.05H114.804ZM126.131 134V98.5H151.082V103.4H131.731V113.35H142.131C146.065 113.35 149.015 114.283 150.982 116.15C152.948 117.983 153.932 120.417 153.932 123.45C153.932 125.483 153.498 127.3 152.632 128.9C151.798 130.467 150.532 131.717 148.832 132.65C147.165 133.55 145.048 134 142.481 134H126.131ZM131.731 129.1H141.731C143.265 129.1 144.498 128.817 145.431 128.25C146.398 127.683 147.082 126.967 147.482 126.1C147.915 125.2 148.132 124.267 148.132 123.3C148.132 122.333 147.948 121.433 147.582 120.6C147.215 119.767 146.548 119.1 145.581 118.6C144.648 118.067 143.331 117.8 141.631 117.8H131.731V129.1ZM189.037 129.05V134H164.687V98.5H188.587V103.45H170.287V113.55H186.137V118.2H170.287V129.05H189.037ZM80.069 133.5V169H74.419V153.35H56.519V169H50.9191V133.5H56.519V148.35H74.419V133.5H80.069ZM99.3272 133.5H104.627L118.427 169H112.527L108.777 159.35H95.0772L91.3772 169H85.4272L99.3272 133.5ZM107.677 155.2L101.977 139.65L96.0772 155.2H107.677ZM118.218 175.8V164.05H119.918C120.851 164.05 121.651 163.683 122.318 162.95C123.018 162.217 123.601 161.05 124.068 159.45C124.568 157.85 124.951 155.75 125.218 153.15C125.518 150.517 125.734 147.3 125.868 143.5L126.118 133.5H148.968V164.05H153.468V175.8H148.518V169H123.168V175.8H118.218ZM127.018 164.05H143.318V138.45H131.318L131.168 144.25C131.068 148.083 130.868 151.333 130.568 154C130.268 156.633 129.834 158.767 129.268 160.4C128.701 162.033 127.951 163.25 127.018 164.05ZM175.191 169.25C172.624 169.25 170.308 168.75 168.241 167.75C166.174 166.75 164.391 165.4 162.891 163.7C161.391 161.967 160.224 160.033 159.391 157.9C158.591 155.733 158.191 153.517 158.191 151.25C158.191 148.883 158.624 146.633 159.491 144.5C160.358 142.333 161.558 140.417 163.091 138.75C164.624 137.05 166.424 135.717 168.491 134.75C170.591 133.75 172.858 133.25 175.291 133.25C177.824 133.25 180.124 133.767 182.191 134.8C184.291 135.833 186.074 137.217 187.541 138.95C189.041 140.683 190.191 142.617 190.991 144.75C191.824 146.883 192.241 149.067 192.241 151.3C192.241 153.667 191.808 155.933 190.941 158.1C190.108 160.233 188.924 162.15 187.391 163.85C185.858 165.517 184.041 166.833 181.941 167.8C179.874 168.767 177.624 169.25 175.191 169.25ZM163.891 151.25C163.891 152.917 164.158 154.533 164.691 156.1C165.224 157.667 165.974 159.067 166.941 160.3C167.941 161.5 169.141 162.45 170.541 163.15C171.941 163.85 173.508 164.2 175.241 164.2C177.041 164.2 178.641 163.833 180.041 163.1C181.441 162.367 182.608 161.383 183.541 160.15C184.508 158.883 185.241 157.483 185.741 155.95C186.241 154.383 186.491 152.817 186.491 151.25C186.491 149.583 186.224 147.983 185.691 146.45C185.191 144.883 184.441 143.5 183.441 142.3C182.441 141.067 181.241 140.1 179.841 139.4C178.474 138.7 176.941 138.35 175.241 138.35C173.441 138.35 171.841 138.717 170.441 139.45C169.041 140.183 167.858 141.167 166.891 142.4C165.924 143.633 165.174 145.017 164.641 146.55C164.141 148.083 163.891 149.65 163.891 151.25Z" fill="white"/>
</svg>
